<?xml version="1.0" encoding="utf-8"?>
<!-- Generator: Adobe Illustrator 27.0.0, SVG Export Plug-In . SVG Version: 6.00 Build 0)  -->
<svg version="1.1" id="Layer_1" xmlns="http://www.w3.org/2000/svg" xmlns:xlink="http://www.w3.org/1999/xlink" x="0px" y="0px"
	 viewBox="0 0 526.1 491.7" style="enable-background:new 0 0 526.1 491.7;" xml:space="preserve">
<style type="text/css">
	.st0{fill:#FFFFFF;}
</style>
<g>
	<g>
		<g>
			<path class="st0" d="M486.2,460.6c0,14.9-0.5,26.8-0.8,30.5c1.2-0.1,3.6-0.2,6.7-0.2c4,0,11.9,0.6,26.6,0.6c4,0,5-0.1,5.4-0.2
				c0.4-2.1,1.3-5.9,2-8.2c-3,1.5-7.5,2.2-17.5,2.2c-4.5,0-7.7-0.3-10.1-0.5c-1-0.1-2.1-0.3-2.4-0.6c-0.5-0.5-0.7-3.5-0.7-24.3v-7.6
				c0-0.2,0.2-0.4,0.4-0.4c1.9,0,14.3,0.2,17.8,0.4c4,0.3,5.7,0.7,7.2,1.5c-0.1-2.1,0.3-6.3,0.8-8.8c-1.1,0.3-3.6,0.6-9.1,0.8
				c-3,0.1-15.4,0.1-16.8,0.1c-0.2,0-0.4-0.2-0.4-0.5V418c0-0.3,0.3-0.4,0.4-0.4c9.1,0,15.2,0.2,18.4,0.5c5.1,0.4,7.2,1,8.4,1.7
				c0-3.5,0.5-7.1,0.8-8.7c-1.9,0.4-6.2,0.5-8.4,0.5h-23.4c-2.1,0-5,0-6.2-0.2c0.6,3,1.1,13.4,1.1,30.5v18.7H486.2z M409.7,460.6
				c0,14.9-0.4,26.8-0.7,30.5c1.3-0.2,2.9-0.2,5.3-0.2c5.1,0,12.6,0.6,28,0.6c4.8,0,5.8-0.1,6.3-0.2c0.4-1.6,1.5-6.2,2.4-8.1
				c-2.5,1.2-6.8,2.1-18.6,2.1c-4.5,0-8.2-0.1-10.3-0.3c-1.1-0.1-2-0.3-2.5-0.7c-0.5-0.4-0.7-3.1-0.7-24.4v-18.2
				c0-14.8,0.4-26.4,0.8-30.3c-1,0.2-4,0.3-6.3,0.3c-1.3,0-3.8,0-4.6-0.2c0.6,3.1,1.1,15.4,1.1,30.5v18.6H409.7z M323.5,460.6
				c0,13.7-0.3,26.3-0.7,30.5c1.6-0.1,4.5-0.2,6.1-0.1c2.4,0.1,7.5,0.7,14.8,0.7c18.7,0,27.5-11.6,27.5-23.8
				c0-12-8.4-18.6-17.3-21.2c4.5-2.5,10.1-8.1,10.1-17c0-7.8-4.4-18.5-22.4-18.5c-5.3,0-10.5,0.4-14.4,0.4c-1.5,0-3.4-0.1-4.8-0.2
				c0.7,3.8,1.1,15.4,1.1,30.5L323.5,460.6L323.5,460.6z M361.6,469.2c0,11.5-8.6,16.7-17.5,16.7c-6,0-10.1-1.1-11.2-2.1
				c-0.3-0.4-0.5-5-0.5-23.2v-9.1c0-0.2,0.1-0.3,0.4-0.4c1-0.1,5.9-0.1,9.3,0.1c4.4,0.2,8.9,1,12.6,3.9
				C360.6,459.6,361.6,464.5,361.6,469.2 M332.4,417.9c0-0.3,0.1-0.5,0.3-0.6c0.7-0.2,3.2-0.4,6.7-0.4c10.7,0,16.2,6,16.2,15
				c0,4.6-2.1,9.7-6.4,12.6c-1.3,0.8-2.1,1-4,1c-1.7,0-10.2-0.1-12.3-0.2c-0.3-0.1-0.4-0.3-0.4-0.5v-26.9H332.4z M235.5,418
				c0-0.4,0-0.6,0.4-0.7c1.5-0.3,4.4-0.4,7.7-0.4c12.1,0,19.3,6.9,19.3,18.1c0,7.6-3.8,13.1-8,16.2c-1.4,1-3.1,1.3-6.1,1.3
				c-5.6,0-10.9-0.3-13-0.7c-0.2-0.1-0.3-0.3-0.3-1L235.5,418L235.5,418z M226.7,460.6c0,13.7-0.4,27-1.1,30.6
				c1.2-0.2,4.3-0.3,6.2-0.3c1.8,0,3.7,0,4.6,0.2c-0.5-4.6-1-16.1-1-29.4v-3.2c0-0.4,0-0.6,0.3-0.6c4.6,0.1,12.3,0.2,14.5,0.1
				c0.5,0,1,0.2,1.4,0.7c4.9,6.5,14.7,21.1,20.5,26.9c4.3,4.5,6.9,5.9,11.6,5.9c2.5,0,5.5-0.1,6.9-0.6c-2-0.8-5.3-3.6-9.7-8.6
				c-7.3-7.8-15-18.5-21.8-27.5c8.6-5.9,12.9-13.3,12.9-22.5c0-7.6-3.9-13.8-9.4-17.3c-4.5-2.9-11.3-3.8-18.5-3.8
				c-3.7,0-11.8,0.4-13.9,0.4c-1.6,0-3,0-4.9-0.2c1.1,3.5,1.3,15.4,1.3,30.5L226.7,460.6L226.7,460.6z M142.2,457
				c-0.2,0-0.3-0.1-0.2-0.4l11.5-30.7l12.5,30.7c0.1,0.3,0,0.4-0.2,0.4H142.2z M168,463.1c0.3,0,0.3,0.1,0.4,0.3
				c3.6,8.6,9.4,22.9,11.1,27.8c1.3-0.2,4.2-0.3,6.9-0.3c1.2,0,3,0.1,4.9,0.2c-2.7-4.1-8.7-17.8-13.4-29.1
				c-9.1-21.4-19.4-45.1-20.6-47.7c-1.5-3.5-2-4.3-2.5-4.3c-0.6,0-1.2,1.3-2.4,4.3l-20.9,51.9c-4.2,10.2-8.2,19.5-10.9,25.1
				c0.8-0.1,3.5-0.3,5.6-0.3c2.2,0,3.2,0,4.2,0.2c1.3-5,6.1-18.5,9.4-27.7c0.1-0.2,0.2-0.3,0.5-0.3H168V463.1z M0,491.2
				c1.1-0.2,3.1-0.3,5.6-0.3c1,0,2.9,0,4,0.2c0-6.5,2.7-41.4,3.9-60.2c8.4,18.6,17.7,37,28.3,59.5c0.7,1.7,1.1,1.7,1.9-0.2
				c8.9-18.7,20.2-40.4,29.1-59c1.2,19.7,3.7,53.4,3.6,60.1c1.4-0.2,3.8-0.3,6.4-0.3c2.2,0,3.7,0,4.5,0.2c-1.5-6.1-4.3-37-6.7-61.9
				c-0.5-5.7-1.1-11.3-1.5-16.4c-0.3-2.5-0.5-3-1-3c-0.3,0-0.8,0.4-1.9,2.3c-3.3,6.5-6.3,12.8-11.9,22.6l-20.6,40.8l-23.1-46
				c-2.9-5.2-8-15.4-9.5-18c-0.6-1-1-1.8-1.4-1.8c-0.3,0-0.5,0.3-0.7,1.6C8.5,416.5,7.9,422,7.3,428C4.7,453.3,1.1,485.6,0,491.2"/>
		</g>
	</g>
	<g>
		<g>
			<g>
				<path class="st0" d="M263.1,314.6c-85.4,0-154.8-70.6-154.8-157.3S177.7,0,263.1,0s154.8,70.6,154.8,157.3
					S348.4,314.6,263.1,314.6z M263.1,12c-78.7,0-142.8,65.2-142.8,145.3s64.1,145.3,142.8,145.3s142.8-65.2,142.8-145.3
					S341.8,12,263.1,12z"/>
			</g>
		</g>
		<g>
			<rect x="151.9" y="147.6" class="st0" width="19" height="19.4"/>
		</g>
		<g>
			<rect x="196.3" y="144.4" class="st0" width="25.4" height="25.8"/>
		</g>
		<g>
			<rect x="247.1" y="138" class="st0" width="38.1" height="38.7"/>
		</g>
		<g>
			<rect x="317.1" y="128.3" class="st0" width="57.1" height="58"/>
		</g>
	</g>
</g>
</svg>
