<?xml version="1.0" encoding="utf-8"?>
<!-- Generator: Adobe Illustrator 26.3.1, SVG Export Plug-In . SVG Version: 6.00 Build 0)  -->
<svg version="1.2" baseProfile="tiny" id="Layer_1" xmlns="http://www.w3.org/2000/svg" xmlns:xlink="http://www.w3.org/1999/xlink"
	 x="0px" y="0px" viewBox="0 0 320 320" overflow="visible" xml:space="preserve">
<g>
	<g>
		<path fill="#FFFFFF" d="M160,317.8c-85.4,0-154.8-70.6-154.8-157.3S74.6,3.2,160,3.2c85.4,0,154.8,70.6,154.8,157.3
			S245.4,317.8,160,317.8z M160,15.2c-78.7,0-142.8,65.2-142.8,145.3c0,80.1,64.1,145.3,142.8,145.3c78.7,0,142.8-65.2,142.8-145.3
			C302.8,80.4,238.7,15.2,160,15.2z"/>
	</g>
</g>
<g>
	<rect x="48.8" y="150.8" fill="#FFFFFF" width="19" height="19.4"/>
</g>
<g>
	<rect x="93.2" y="147.6" fill="#FFFFFF" width="25.4" height="25.8"/>
</g>
<g>
	<rect x="144" y="141.2" fill="#FFFFFF" width="38.1" height="38.7"/>
</g>
<g>
	<rect x="214.1" y="131.5" fill="#FFFFFF" width="57.1" height="58"/>
</g>
</svg>
